<?xml version="1.0" encoding="iso-8859-1"?>
<!-- Generator: Adobe Illustrator 17.1.0, SVG Export Plug-In . SVG Version: 6.00 Build 0)  -->
<!DOCTYPE svg PUBLIC "-//W3C//DTD SVG 1.1//EN" "http://www.w3.org/Graphics/SVG/1.1/DTD/svg11.dtd">
<svg version="1.1" id="Capa_1" xmlns="http://www.w3.org/2000/svg" xmlns:xlink="http://www.w3.org/1999/xlink" x="0px" y="0px"
	 viewBox="0 0 212.5 212.5" style="enable-background:new 0 0 212.5 212.5;" xml:space="preserve">
<path d="M210.488,158.491l-32.253,34.631c-1.419,1.523-3.406,2.389-5.488,2.389H26.613c-2.731,0-5.246-1.485-6.566-3.876
	L0.934,157.004c-1.282-2.323-1.241-5.151,0.107-7.437c1.35-2.285,3.806-3.688,6.459-3.688H205c2.985,0,5.686,1.77,6.877,4.507
	C213.068,153.124,212.523,156.307,210.488,158.491z M201.382,119.829L94.401,19.031c-2.179-2.052-5.368-2.612-8.116-1.427
	c-2.748,1.187-4.527,3.893-4.527,6.886v100.799c0,4.142,3.357,7.5,7.5,7.5h106.98c3.074,0,5.837-1.876,6.971-4.733
	C204.344,125.198,203.619,121.937,201.382,119.829z M63.218,76.96c-2.748-1.186-5.938-0.625-8.116,1.427l-43.982,41.442
	c-2.237,2.108-2.962,5.368-1.827,8.225c1.134,2.857,3.896,4.733,6.971,4.733h43.982c4.143,0,7.5-3.358,7.5-7.5V83.846
	C67.745,80.853,65.966,78.147,63.218,76.96z"/>
<g>
</g>
<g>
</g>
<g>
</g>
<g>
</g>
<g>
</g>
<g>
</g>
<g>
</g>
<g>
</g>
<g>
</g>
<g>
</g>
<g>
</g>
<g>
</g>
<g>
</g>
<g>
</g>
<g>
</g>
</svg>
